<mxfile host="Electron" agent="Mozilla/5.0 (Windows NT 10.0; Win64; x64) AppleWebKit/537.36 (KHTML, like Gecko) draw.io/26.2.2 Chrome/134.0.6998.178 Electron/35.1.2 Safari/537.36" version="26.2.2">
  <diagram name="Page-1" id="CNp61uJX14GoNxj4YRVg">
    <mxGraphModel dx="1044" dy="634" grid="1" gridSize="10" guides="1" tooltips="1" connect="1" arrows="1" fold="1" page="1" pageScale="1" pageWidth="1100" pageHeight="850" math="0" shadow="0">
      <root>
        <mxCell id="0" />
        <mxCell id="1" parent="0" />
        <mxCell id="5Kv6CdT8zGYww7tFs8e1-1" value="Hotel Management system" style="swimlane;whiteSpace=wrap;html=1;" parent="1" vertex="1">
          <mxGeometry x="200" y="40" width="560" height="540" as="geometry" />
        </mxCell>
        <mxCell id="5Kv6CdT8zGYww7tFs8e1-2" value="Make Reserve" style="ellipse;whiteSpace=wrap;html=1;" parent="5Kv6CdT8zGYww7tFs8e1-1" vertex="1">
          <mxGeometry x="20" y="60" width="120" height="50" as="geometry" />
        </mxCell>
        <mxCell id="5Kv6CdT8zGYww7tFs8e1-3" value="search available rooms" style="ellipse;whiteSpace=wrap;html=1;" parent="5Kv6CdT8zGYww7tFs8e1-1" vertex="1">
          <mxGeometry x="190" y="110" width="160" height="50" as="geometry" />
        </mxCell>
        <mxCell id="5Kv6CdT8zGYww7tFs8e1-4" value="check in guest" style="ellipse;whiteSpace=wrap;html=1;" parent="5Kv6CdT8zGYww7tFs8e1-1" vertex="1">
          <mxGeometry x="210" y="170" width="130" height="50" as="geometry" />
        </mxCell>
        <mxCell id="5Kv6CdT8zGYww7tFs8e1-5" value="Assign room" style="ellipse;whiteSpace=wrap;html=1;" parent="5Kv6CdT8zGYww7tFs8e1-1" vertex="1">
          <mxGeometry x="210" y="280" width="120" height="50" as="geometry" />
        </mxCell>
        <mxCell id="5Kv6CdT8zGYww7tFs8e1-6" value="Request room service" style="ellipse;whiteSpace=wrap;html=1;" parent="5Kv6CdT8zGYww7tFs8e1-1" vertex="1">
          <mxGeometry x="200" y="340" width="160" height="50" as="geometry" />
        </mxCell>
        <mxCell id="5Kv6CdT8zGYww7tFs8e1-7" value="check out guest" style="ellipse;whiteSpace=wrap;html=1;" parent="5Kv6CdT8zGYww7tFs8e1-1" vertex="1">
          <mxGeometry x="200" y="420" width="150" height="50" as="geometry" />
        </mxCell>
        <mxCell id="5Kv6CdT8zGYww7tFs8e1-8" value="process payment" style="ellipse;whiteSpace=wrap;html=1;" parent="5Kv6CdT8zGYww7tFs8e1-1" vertex="1">
          <mxGeometry x="380" y="460" width="150" height="50" as="geometry" />
        </mxCell>
        <mxCell id="5Kv6CdT8zGYww7tFs8e1-9" value="Clean room" style="ellipse;whiteSpace=wrap;html=1;" parent="5Kv6CdT8zGYww7tFs8e1-1" vertex="1">
          <mxGeometry x="390" y="70" width="120" height="50" as="geometry" />
        </mxCell>
        <mxCell id="5Kv6CdT8zGYww7tFs8e1-14" value="" style="endArrow=none;html=1;rounded=0;entryX=0;entryY=0.5;entryDx=0;entryDy=0;" parent="5Kv6CdT8zGYww7tFs8e1-1" target="5Kv6CdT8zGYww7tFs8e1-3" edge="1">
          <mxGeometry width="50" height="50" relative="1" as="geometry">
            <mxPoint x="-130" y="180" as="sourcePoint" />
            <mxPoint x="160" y="130" as="targetPoint" />
          </mxGeometry>
        </mxCell>
        <mxCell id="5Kv6CdT8zGYww7tFs8e1-15" value="" style="endArrow=none;html=1;rounded=0;" parent="5Kv6CdT8zGYww7tFs8e1-1" edge="1">
          <mxGeometry width="50" height="50" relative="1" as="geometry">
            <mxPoint x="-140" y="210" as="sourcePoint" />
            <mxPoint x="210" y="190" as="targetPoint" />
          </mxGeometry>
        </mxCell>
        <mxCell id="5Kv6CdT8zGYww7tFs8e1-16" value="" style="endArrow=none;html=1;rounded=0;entryX=0;entryY=0.5;entryDx=0;entryDy=0;" parent="5Kv6CdT8zGYww7tFs8e1-1" target="5Kv6CdT8zGYww7tFs8e1-5" edge="1">
          <mxGeometry width="50" height="50" relative="1" as="geometry">
            <mxPoint x="-130" y="230" as="sourcePoint" />
            <mxPoint x="210" y="270" as="targetPoint" />
          </mxGeometry>
        </mxCell>
        <mxCell id="5Kv6CdT8zGYww7tFs8e1-17" value="" style="endArrow=none;html=1;rounded=0;" parent="5Kv6CdT8zGYww7tFs8e1-1" edge="1">
          <mxGeometry width="50" height="50" relative="1" as="geometry">
            <mxPoint x="-130" y="250" as="sourcePoint" />
            <mxPoint x="200" y="350" as="targetPoint" />
          </mxGeometry>
        </mxCell>
        <mxCell id="5Kv6CdT8zGYww7tFs8e1-18" value="" style="endArrow=none;html=1;rounded=0;" parent="5Kv6CdT8zGYww7tFs8e1-1" edge="1">
          <mxGeometry width="50" height="50" relative="1" as="geometry">
            <mxPoint x="-140" y="270" as="sourcePoint" />
            <mxPoint x="200" y="440" as="targetPoint" />
          </mxGeometry>
        </mxCell>
        <mxCell id="5Kv6CdT8zGYww7tFs8e1-21" value="" style="endArrow=none;html=1;rounded=0;" parent="5Kv6CdT8zGYww7tFs8e1-1" source="5Kv6CdT8zGYww7tFs8e1-3" edge="1">
          <mxGeometry width="50" height="50" relative="1" as="geometry">
            <mxPoint x="540" y="440" as="sourcePoint" />
            <mxPoint x="640" y="330" as="targetPoint" />
          </mxGeometry>
        </mxCell>
        <mxCell id="5Kv6CdT8zGYww7tFs8e1-22" value="" style="endArrow=none;html=1;rounded=0;" parent="5Kv6CdT8zGYww7tFs8e1-1" edge="1">
          <mxGeometry width="50" height="50" relative="1" as="geometry">
            <mxPoint x="630" y="350" as="sourcePoint" />
            <mxPoint x="340" y="210" as="targetPoint" />
          </mxGeometry>
        </mxCell>
        <mxCell id="5Kv6CdT8zGYww7tFs8e1-28" value="" style="endArrow=block;dashed=1;endFill=0;endSize=12;html=1;rounded=0;entryX=0.715;entryY=-0.008;entryDx=0;entryDy=0;entryPerimeter=0;" parent="5Kv6CdT8zGYww7tFs8e1-1" edge="1">
          <mxGeometry width="160" relative="1" as="geometry">
            <mxPoint x="140" y="80.2" as="sourcePoint" />
            <mxPoint x="304.4000000000001" y="109.80000000000003" as="targetPoint" />
          </mxGeometry>
        </mxCell>
        <mxCell id="5Kv6CdT8zGYww7tFs8e1-30" value="&amp;lt;&amp;lt;include&amp;gt;&amp;gt;" style="edgeLabel;html=1;align=center;verticalAlign=middle;resizable=0;points=[];" parent="5Kv6CdT8zGYww7tFs8e1-28" vertex="1" connectable="0">
          <mxGeometry x="-0.0492" y="-8" relative="1" as="geometry">
            <mxPoint x="14" y="-22" as="offset" />
          </mxGeometry>
        </mxCell>
        <mxCell id="5Kv6CdT8zGYww7tFs8e1-31" value="" style="endArrow=block;dashed=1;endFill=0;endSize=12;html=1;rounded=0;" parent="5Kv6CdT8zGYww7tFs8e1-1" target="5Kv6CdT8zGYww7tFs8e1-5" edge="1">
          <mxGeometry width="160" relative="1" as="geometry">
            <mxPoint x="300" y="220" as="sourcePoint" />
            <mxPoint x="460" y="220" as="targetPoint" />
          </mxGeometry>
        </mxCell>
        <mxCell id="5Kv6CdT8zGYww7tFs8e1-32" value="&amp;lt;&amp;lt;include&amp;gt;&amp;gt;" style="edgeLabel;html=1;align=center;verticalAlign=middle;resizable=0;points=[];" parent="5Kv6CdT8zGYww7tFs8e1-31" vertex="1" connectable="0">
          <mxGeometry x="-0.3615" y="2" relative="1" as="geometry">
            <mxPoint as="offset" />
          </mxGeometry>
        </mxCell>
        <mxCell id="5Kv6CdT8zGYww7tFs8e1-33" value="" style="endArrow=block;dashed=1;endFill=0;endSize=12;html=1;rounded=0;entryX=0;entryY=1;entryDx=0;entryDy=0;" parent="5Kv6CdT8zGYww7tFs8e1-1" target="5Kv6CdT8zGYww7tFs8e1-8" edge="1">
          <mxGeometry width="160" relative="1" as="geometry">
            <mxPoint x="250" y="470" as="sourcePoint" />
            <mxPoint x="400" y="470" as="targetPoint" />
          </mxGeometry>
        </mxCell>
        <mxCell id="5Kv6CdT8zGYww7tFs8e1-34" value="&amp;lt;&amp;lt;include&amp;gt;&amp;gt;" style="edgeLabel;html=1;align=center;verticalAlign=middle;resizable=0;points=[];" parent="5Kv6CdT8zGYww7tFs8e1-33" vertex="1" connectable="0">
          <mxGeometry x="0.0169" y="-2" relative="1" as="geometry">
            <mxPoint as="offset" />
          </mxGeometry>
        </mxCell>
        <mxCell id="5Kv6CdT8zGYww7tFs8e1-35" value="" style="endArrow=block;dashed=1;endFill=0;endSize=12;html=1;rounded=0;" parent="5Kv6CdT8zGYww7tFs8e1-1" edge="1">
          <mxGeometry width="160" relative="1" as="geometry">
            <mxPoint x="450" y="120" as="sourcePoint" />
            <mxPoint x="360" y="350" as="targetPoint" />
          </mxGeometry>
        </mxCell>
        <mxCell id="5Kv6CdT8zGYww7tFs8e1-36" value="&amp;lt;&amp;lt;extend&amp;gt;&amp;gt;" style="edgeLabel;html=1;align=center;verticalAlign=middle;resizable=0;points=[];" parent="5Kv6CdT8zGYww7tFs8e1-35" vertex="1" connectable="0">
          <mxGeometry x="-0.6324" y="1" relative="1" as="geometry">
            <mxPoint y="1" as="offset" />
          </mxGeometry>
        </mxCell>
        <mxCell id="5Kv6CdT8zGYww7tFs8e1-10" value="Guest" style="shape=umlActor;verticalLabelPosition=bottom;verticalAlign=top;" parent="1" vertex="1">
          <mxGeometry x="20" y="220" width="30" height="60" as="geometry" />
        </mxCell>
        <mxCell id="5Kv6CdT8zGYww7tFs8e1-11" value="housekeeping" style="shape=umlActor;verticalLabelPosition=bottom;verticalAlign=top;" parent="1" vertex="1">
          <mxGeometry x="850" y="130" width="30" height="60" as="geometry" />
        </mxCell>
        <mxCell id="5Kv6CdT8zGYww7tFs8e1-12" value="Receptionest" style="shape=umlActor;verticalLabelPosition=bottom;verticalAlign=top;" parent="1" vertex="1">
          <mxGeometry x="860" y="360" width="30" height="60" as="geometry" />
        </mxCell>
        <mxCell id="5Kv6CdT8zGYww7tFs8e1-13" value="" style="endArrow=none;html=1;rounded=0;entryX=0;entryY=1;entryDx=0;entryDy=0;" parent="1" edge="1">
          <mxGeometry width="50" height="50" relative="1" as="geometry">
            <mxPoint x="60" y="190" as="sourcePoint" />
            <mxPoint x="227.57359312880703" y="139.99766952966382" as="targetPoint" />
          </mxGeometry>
        </mxCell>
        <mxCell id="5Kv6CdT8zGYww7tFs8e1-19" value="" style="endArrow=none;html=1;rounded=0;exitX=1;exitY=0.5;exitDx=0;exitDy=0;" parent="1" source="5Kv6CdT8zGYww7tFs8e1-9" edge="1">
          <mxGeometry width="50" height="50" relative="1" as="geometry">
            <mxPoint x="780" y="220" as="sourcePoint" />
            <mxPoint x="830" y="170" as="targetPoint" />
          </mxGeometry>
        </mxCell>
        <mxCell id="5Kv6CdT8zGYww7tFs8e1-20" value="" style="endArrow=none;html=1;rounded=0;" parent="1" source="5Kv6CdT8zGYww7tFs8e1-6" edge="1">
          <mxGeometry width="50" height="50" relative="1" as="geometry">
            <mxPoint x="450" y="350" as="sourcePoint" />
            <mxPoint x="810" y="210" as="targetPoint" />
            <Array as="points">
              <mxPoint x="660" y="300" />
            </Array>
          </mxGeometry>
        </mxCell>
        <mxCell id="5Kv6CdT8zGYww7tFs8e1-23" value="" style="endArrow=none;html=1;rounded=0;" parent="1" edge="1">
          <mxGeometry width="50" height="50" relative="1" as="geometry">
            <mxPoint x="530" y="340" as="sourcePoint" />
            <mxPoint x="830" y="410" as="targetPoint" />
          </mxGeometry>
        </mxCell>
        <mxCell id="5Kv6CdT8zGYww7tFs8e1-24" value="" style="endArrow=none;html=1;rounded=0;" parent="1" source="5Kv6CdT8zGYww7tFs8e1-7" edge="1">
          <mxGeometry width="50" height="50" relative="1" as="geometry">
            <mxPoint x="770" y="480" as="sourcePoint" />
            <mxPoint x="820" y="430" as="targetPoint" />
          </mxGeometry>
        </mxCell>
        <mxCell id="5Kv6CdT8zGYww7tFs8e1-25" value="" style="endArrow=none;html=1;rounded=0;" parent="1" source="5Kv6CdT8zGYww7tFs8e1-8" edge="1">
          <mxGeometry width="50" height="50" relative="1" as="geometry">
            <mxPoint x="790" y="510" as="sourcePoint" />
            <mxPoint x="860" y="450" as="targetPoint" />
          </mxGeometry>
        </mxCell>
      </root>
    </mxGraphModel>
  </diagram>
</mxfile>
